Coordinates
version=1
nRows=21
nColumns=19
inDegrees=yes

Units are S.I. units (second, meters, Newtons, ...)
If the header above contains a line with 'inDegrees', this indicates whether rotational values are in degrees (yes) or radians (no).

endheader
time	pelvis_tilt	pelvis_list	pelvis_rotation	pelvis_tx	pelvis_ty	pelvis_tz	hip_flexion_r	hip_adduction_r	hip_rotation_r	knee_angle_r	knee_angle_r_beta	ankle_angle_r	hip_flexion_l	hip_adduction_l	hip_rotation_l	knee_angle_l	knee_angle_l_beta	ankle_angle_l
     11.82000000	    -11.11229952	     -8.12857601	     -0.97828830	      2.28801795	      0.93913336	      1.03638671	     32.08355551	     10.36453344	     -3.43802069	      5.66318875	      0.09884129	      4.47779285	    -13.03649192	    -12.90887185	    -20.34508714	     64.79053718	      1.13080820	    -16.55110972
     11.82666667	    -11.20525169	     -8.72742407	     -2.09372202	      2.28681563	      0.93481903	      1.03830121	     32.95731123	     11.31537500	     -4.84871166	      9.81812010	      0.17135852	      4.39236072	    -11.75096647	    -13.98439858	    -21.17687600	     68.98424680	      1.20400224	    -15.93028895
     11.83333333	    -11.35680349	     -9.16194299	     -3.23072539	      2.28532118	      0.93002792	      1.04004162	     34.06539073	     11.96896303	     -6.15969267	     14.63500796	      0.25542907	      4.65149369	    -10.26692779	    -14.85858238	    -21.77543417	     73.12955614	      1.27635154	    -15.25571061
     11.84000000	    -11.43672265	     -9.42194949	     -4.26825383	      2.28368669	      0.92500115	      1.04144329	     35.08686268	     12.31819986	     -7.14853110	     19.68059720	      0.34349122	      5.26332599	     -8.67612202	    -15.48485018	    -22.02251834	     77.16572602	      1.34679599	    -14.48532202
     11.84666667	    -11.42219882	     -9.63654194	     -5.19987936	      2.28196693	      0.91997073	      1.04256912	     35.83001780	     12.57846720	     -7.65527560	     24.55149973	      0.42850451	      6.22532011	     -7.00879582	    -16.02203743	    -21.99411335	     81.07365748	      1.41500226	    -13.70300141
     11.85333333	    -11.25539439	     -9.83810607	     -5.96818656	      2.28021275	      0.91523675	      1.04337471	     36.15818061	     12.79994514	     -7.75428266	     29.05917386	      0.50717826	      7.71009480	     -5.29937259	    -16.49454359	    -21.66444517	     84.81213695	      1.48025104	    -12.94503593
     11.86000000	    -11.05651938	    -10.04653157	     -6.59459122	      2.27829845	      0.91087175	      1.04403316	     36.14949058	     13.04547430	     -7.53969477	     33.04839732	      0.57680335	      9.48349998	     -3.39068845	    -16.94912364	    -21.04347660	     88.39970822	      1.54286597	    -12.16249048
     11.86666667	    -10.34934895	    -10.46992559	     -7.04588742	      2.27645973	      0.90760228	      1.04443120	     35.18329539	     13.48263630	     -7.14073067	     36.34244982	      0.63429541	     11.65380178	     -1.91587849	    -17.55721797	    -20.27198769	     91.68947019	      1.60028314	    -11.37644703
     11.87333333	     -9.83166198	    -10.77497199	     -7.38983846	      2.27446324	      0.90469672	      1.04469824	     34.11248084	     13.80410272	     -6.63134573	     39.11606138	      0.68270406	     14.12425628	      0.03736143	    -17.97560067	    -19.17002634	     94.78138872	      1.65424730	    -10.53874396
     11.88000000	     -9.99301051	    -10.74652457	     -7.55326624	      2.27223756	      0.90182383	      1.04480379	     33.47963604	     13.78871786	     -6.07401838	     41.32944095	      0.72133482	     16.55003930	      3.14836947	    -18.00465867	    -17.54868618	     97.70580211	      1.70528795	     -9.71730284
     11.88666667	     -9.38132707	    -11.03557182	     -7.61836264	      2.27035917	      0.90056063	      1.04480173	     31.48833997	     14.07225278	     -5.39453389	     42.68506410	      0.74499491	     19.18682443	      5.35898756	    -18.28333560	    -16.04513671	    100.16075871	      1.74813502	     -8.79467233
     11.89333333	     -9.28807142	    -11.12428816	     -7.44458946	      2.26853569	      0.89948087	      1.04460743	     29.73252688	     14.08060109	     -4.87199626	     43.43791001	      0.75813455	     21.65043471	      8.44248731	    -18.25867398	    -14.07994225	    102.35337026	      1.78640331	     -7.78182357
     11.90000000	     -8.89777325	    -11.23426297	     -7.18032438	      2.26709384	      0.89944649	      1.04446054	     27.24199572	     14.12092382	     -4.23969146	     43.47746322	      0.75882488	     23.92575926	     11.19003697	    -18.16243171	    -12.14019900	    104.08675751	      1.81665663	     -6.66498326
     11.90666667	     -8.65476037	    -11.18900874	     -6.83991372	      2.26589500	      0.89996804	      1.04441947	     24.57195702	     14.04085337	     -3.49758616	     42.88843966	      0.74854448	     25.92836432	     14.13160856	    -17.85688567	    -10.19302884	    105.40845512	      1.83972460	     -5.40050669
     11.91333333	     -8.54035931	    -11.06504222	     -6.32292507	      2.26522604	      0.90089842	      1.04439768	     21.73311333	     13.86993324	     -2.83447302	     41.72204372	      0.72818703	     27.49778023	     17.21386220	    -17.36747898	     -8.14313816	    106.32726873	      1.85576092	     -4.06984234
     11.92000000	     -8.54280169	    -10.78808381	     -5.73857477	      2.26493295	      0.90233030	      1.04451566	     18.76462089	     13.57050689	     -2.14784517	     40.02066924	      0.69849245	     28.44970857	     20.34504808	    -16.65930389	     -6.19043512	    106.79999363	      1.86401153	     -2.69630274
     11.92666667	     -8.66155531	    -10.35138390	     -5.12406028	      2.26509876	      0.90408161	      1.04484593	     15.72183127	     13.16883255	     -1.37906352	     37.90925522	      0.66164132	     28.89803521	     23.45104370	    -15.75096846	     -4.42800889	    106.84437650	      1.86478616	     -1.28131126
     11.93333333	     -8.84423949	     -9.73566187	     -4.47758208	      2.26571044	      0.90621322	      1.04529580	     12.59694743	     12.59877436	     -0.62402902	     35.43541816	      0.61846472	     28.61916782	     26.44112412	    -14.63371239	     -2.92365508	    106.44747513	      1.85785892	      0.10787273
     11.94000000	     -9.09922179	     -8.93107315	     -3.83938225	      2.26666317	      0.90864108	      1.04584178	      9.48395368	     11.84418789	      0.10147010	     32.72799894	      0.57121134	     27.73591873	     29.29332946	    -13.34081191	     -1.75306712	    105.62739240	      1.84354578	      1.45390993
     11.94666667	     -9.72383847	     -7.83012580	     -3.38875277	      2.26776994	      0.91104875	      1.04657003	      6.82999679	     10.80719570	      0.88702497	     30.04524264	      0.52438841	     26.20971481	     32.30269697	    -11.84690244	     -1.08398349	    104.40140534	      1.82214827	      2.65909341
     11.95333333	    -10.13289634	     -6.73987704	     -2.70734627	      2.26921103	      0.91388905	      1.04695513	      3.93470503	      9.68573251	      1.17676162	     27.15724196	      0.47398329	     23.85711191	     34.91780635	    -10.25603935	     -0.47024034	    102.81795451	      1.79451184	      3.82611582
